<svg width="71" height="71" viewBox="0 0 71 71" fill="none" xmlns="http://www.w3.org/2000/svg">
<path d="M58.0572 26.2724C56.4414 22.4776 53.9188 19.1375 50.7107 16.5453C47.5027 13.953 43.7074 12.1879 39.6579 11.4048L43.3159 5.55203L39.6059 3.23328L34.7791 10.9562C29.8624 10.9791 25.0601 12.4418 20.9655 15.1638C16.871 17.8858 13.6636 21.7477 11.7397 26.2724C9.16259 26.3214 6.7076 27.3796 4.90241 29.2194C3.09722 31.0592 2.08594 33.5339 2.08594 36.1114C2.08594 38.6889 3.09722 41.1636 4.90241 43.0034C6.7076 44.8433 9.16259 45.9014 11.7397 45.9504C13.6718 50.4937 16.8976 54.3683 21.0155 57.0919C25.1333 59.8155 29.9614 61.2677 34.8984 61.2677C39.8355 61.2677 44.6636 59.8155 48.7814 57.0919C52.8993 54.3683 56.1251 50.4937 58.0572 45.9504C60.6343 45.9014 63.0893 44.8433 64.8945 43.0034C66.6997 41.1636 67.711 38.6889 67.711 36.1114C67.711 33.5339 66.6997 31.0592 64.8945 29.2194C63.0893 27.3796 60.6343 26.3214 58.0572 26.2724ZM61.7694 39.9409C60.7688 40.9643 59.4051 41.5518 57.9741 41.5762L55.1406 41.6301L54.0314 44.2378C52.4355 47.9917 49.7705 51.1931 46.3685 53.4435C42.9664 55.6939 38.9775 56.8938 34.8985 56.8938C30.8195 56.8938 26.8306 55.6939 23.4285 53.4435C20.0265 51.1931 17.3616 47.9917 15.7656 44.2378L14.6563 41.6301L11.8228 41.5762C10.3911 41.5494 9.02719 40.9619 8.0242 39.9399C7.02122 38.918 6.45932 37.5433 6.45932 36.1114C6.45932 34.6795 7.02122 33.3048 8.0242 32.2829C9.02719 31.2609 10.3911 30.6734 11.8228 30.6466L14.6563 30.5927L15.7656 27.985C17.3616 24.2312 20.0265 21.0298 23.4286 18.7795C26.8307 16.5291 30.8195 15.3293 34.8985 15.3293C38.9775 15.3293 42.9664 16.5291 46.3684 18.7795C49.7705 21.0298 52.4354 24.2312 54.0314 27.985L55.1406 30.5927L57.9741 30.6466C59.0419 30.6668 60.0804 30.9994 60.9612 31.6033C61.8421 32.2072 62.5267 33.056 62.9304 34.0447C63.3342 35.0335 63.4394 36.1188 63.2331 37.1667C63.0267 38.2146 62.5179 39.179 61.7694 39.9409V39.9409Z" fill="#E74424"/>
<path d="M28.3359 30.6427H22.8672V36.1115H28.3359V30.6427Z" fill="#E74424"/>
<path d="M46.9297 30.6427H41.4609V36.1115H46.9297V30.6427Z" fill="#E74424"/>
<path d="M34.8984 51.424C36.3348 51.424 37.757 51.141 39.084 50.5914C40.411 50.0417 41.6168 49.2361 42.6324 48.2204C43.6481 47.2048 44.4537 45.9991 45.0034 44.6721C45.553 43.3451 45.8359 41.9228 45.8359 40.4865H23.9609C23.9609 41.9228 24.2438 43.3451 24.7935 44.6721C25.3432 45.9991 26.1488 47.2048 27.1645 48.2204C29.2156 50.2716 31.9976 51.424 34.8984 51.424V51.424Z" fill="#E74424"/>
</svg>
