<svg width="50" height="50" viewBox="0 0 50 50" fill="none" xmlns="http://www.w3.org/2000/svg">
<g clip-path="url(#clip0_24_147)">
<path d="M25.0001 49.004C38.2571 49.004 49.0041 38.257 49.0041 25C49.0041 11.7429 38.2571 0.995972 25.0001 0.995972C11.7431 0.995972 0.996094 11.7429 0.996094 25C0.996094 38.257 11.7431 49.004 25.0001 49.004Z" fill="#D5E2E8"/>
<path d="M25.0001 36.8526C31.5461 36.8526 36.8527 31.546 36.8527 25C36.8527 18.4539 31.5461 13.1473 25.0001 13.1473C18.4541 13.1473 13.1475 18.4539 13.1475 25C13.1475 31.546 18.4541 36.8526 25.0001 36.8526Z" fill="#3CC4DC"/>
<path d="M24.9997 28.7848C27.09 28.7848 28.7846 27.0903 28.7846 25C28.7846 22.9096 27.09 21.2151 24.9997 21.2151C22.9094 21.2151 21.2148 22.9096 21.2148 25C21.2148 27.0903 22.9094 28.7848 24.9997 28.7848Z" fill="#272828"/>
<path d="M25 50C18.3223 50 12.0442 47.3996 7.32227 42.6776C2.60039 37.9558 0 31.6778 0 25C0 18.3222 2.60039 12.0442 7.32227 7.32236C12.0442 2.60039 18.3223 0 25 0C31.6777 0 37.9558 2.60039 42.6777 7.32236C47.3996 12.0442 50 18.3222 50 25C50 31.6778 47.3996 37.9558 42.6777 42.6776C37.9558 47.3996 31.6777 50 25 50ZM25 1.99199C12.3134 1.99199 1.99199 12.3134 1.99199 25C1.99199 37.6866 12.3134 48.008 25 48.008C37.6866 48.008 48.008 37.6866 48.008 25C48.008 12.3134 37.6866 1.99199 25 1.99199Z" fill="black"/>
<path d="M25 37.8486C17.9152 37.8486 12.1514 32.0848 12.1514 25C12.1514 17.9152 17.9152 12.1514 25 12.1514C32.0848 12.1514 37.8486 17.9152 37.8486 25C37.8486 32.0848 32.0848 37.8486 25 37.8486ZM25 14.1435C19.0137 14.1435 14.1435 19.0137 14.1435 25C14.1435 30.9863 19.0137 35.8565 25 35.8565C30.9863 35.8565 35.8565 30.9863 35.8565 25C35.8565 19.0137 30.9863 14.1435 25 14.1435Z" fill="black"/>
<path d="M24.9996 29.7808C22.3635 29.7808 20.2188 27.6362 20.2188 25C20.2188 22.3637 22.3635 20.2191 24.9996 20.2191C27.6357 20.2191 29.7805 22.3637 29.7805 25C29.7805 27.6362 27.6357 29.7808 24.9996 29.7808ZM24.9996 22.2111C23.4618 22.2111 22.2107 23.4622 22.2107 25C22.2107 26.5378 23.4618 27.7888 24.9996 27.7888C26.5374 27.7888 27.7885 26.5378 27.7885 25C27.7885 23.4622 26.5374 22.2111 24.9996 22.2111Z" fill="black"/>
<path d="M45.3192 25.996C44.7691 25.996 44.3232 25.55 44.3232 25C44.3232 16.3161 38.481 8.6517 30.116 6.36136C29.5855 6.21615 29.2731 5.6682 29.4185 5.13773C29.5637 4.60717 30.1118 4.29467 30.6422 4.44008C39.8701 6.96674 46.3152 15.4213 46.3152 25C46.3152 25.55 45.8693 25.996 45.3192 25.996Z" fill="black"/>
<path d="M26.3953 5.72446C26.3726 5.72446 26.3499 5.72378 26.3269 5.72231C25.8883 5.69243 25.4418 5.67739 24.9999 5.67739C24.4498 5.67739 24.0039 5.2314 24.0039 4.6814C24.0039 4.1314 24.4498 3.6853 24.9999 3.6853C25.4865 3.6853 25.9784 3.7019 26.4616 3.73462C27.0104 3.77183 27.4252 4.24692 27.388 4.79565C27.3524 5.32163 26.9147 5.72446 26.3953 5.72446Z" fill="black"/>
</g>
<defs>
<clipPath id="clip0_24_147">
<rect width="50" height="50" fill="white"/>
</clipPath>
</defs>
</svg>
