<svg width="60" height="60" viewBox="0 0 60 60" fill="none" xmlns="http://www.w3.org/2000/svg">
<path d="M5.90784 35.1412C8.93134 35.1412 10.9155 38.023 10.9628 38.1647C11.01 38.212 11.01 38.3065 11.01 38.3537C10.6321 39.4875 10.4903 41.2827 11.199 42.7472C12.8052 45.9597 21.6395 55.3137 34.5839 55.3137C47.7645 55.3137 59.3389 43.2669 59.3389 29.5666C59.3389 18.7481 55.4178 12.5594 48.6621 12.5594C48.6149 12.5594 48.5677 12.5594 48.5204 12.5594C48.3314 12.5594 48.0952 12.5594 47.7645 12.5594C45.0717 12.5594 38.7413 11.8035 37.4185 4.7644L32.647 6.55961C33.6391 13.9767 41.2923 14.9215 41.3396 14.9687C41.4341 14.9687 41.5285 15.0632 41.5285 15.1577C41.5285 15.2522 41.5285 15.3467 41.4341 15.3939C41.3868 15.3939 38.9775 17.0474 38.883 21.7244C38.5995 38.1175 27.8755 39.393 24.5686 39.393C21.3561 39.393 18.0964 38.4009 15.5925 36.7475C15.2618 36.5112 14.9311 36.275 14.5532 36.0388C12.4745 34.5271 9.59274 32.4956 6.33302 32.4956C4.44332 32.4956 2.55363 33.2043 0.805664 34.5743L2.31742 36.5585C3.54572 35.6136 4.72678 35.1412 5.90784 35.1412Z" fill="#FF8A65"/>
<path d="M34.5836 56.0224C21.3085 56.0224 12.238 46.3849 10.5845 43.0307C9.63967 41.141 10.0176 39.2041 10.2538 38.3537C9.82864 37.7868 8.41137 36.1806 6.47444 35.8971C5.19889 35.7082 3.87611 36.1334 2.60057 37.2199C2.50608 37.3144 2.36435 37.3617 2.26987 37.3144C2.12814 37.3144 2.03366 37.2199 1.93917 37.1254L0.0967228 34.7633C-0.0450042 34.5744 -0.0450042 34.2909 0.191207 34.1019C6.28547 29.1415 11.7183 33.0626 14.9781 35.3775C15.356 35.6137 15.6867 35.8971 15.9701 36.0861C19.4661 38.4482 25.5603 39.8183 30.6625 37.2199C33.9695 35.5192 37.9851 31.4091 38.1268 21.6772C38.174 18.2758 39.4023 16.3861 40.2527 15.4412C38.0323 14.8743 32.6467 12.8901 31.8436 6.46517C31.7963 6.22896 31.9381 6.03999 32.127 5.94551L37.3237 4.00857C37.4654 3.96133 37.6071 3.96133 37.7489 4.05581C37.8906 4.1503 37.9378 4.24478 37.9851 4.38651C39.0716 11.2366 44.9769 11.9925 48.4256 11.8508C48.5201 11.8508 48.5673 11.8508 48.6146 11.8508C55.8427 11.8508 60 18.323 60 29.5667C60 36.3223 57.2599 43.0307 52.4412 48.0857C47.6225 53.1878 41.2448 56.0224 34.5836 56.0224ZM5.90753 34.9051C6.14374 34.9051 6.37995 34.9051 6.66341 34.9523C9.40346 35.3775 11.1042 37.8813 11.1987 38.023C11.2932 38.1648 11.2932 38.3065 11.2459 38.4482C10.868 39.5348 10.7262 41.2355 11.4349 42.6528C12.9939 45.8653 21.7809 55.1248 34.5836 55.1248C47.6225 55.1248 59.1024 43.2197 59.1024 29.6139C59.1024 18.9371 55.2758 12.8429 48.6618 12.8429C48.6146 12.8429 48.5673 12.8429 48.5201 12.8429C45.5911 12.9846 38.7409 12.4177 37.2292 5.14239L32.9301 6.74863C34.0167 13.835 41.3393 14.7326 41.3865 14.7326C41.5755 14.7326 41.7645 14.9215 41.8117 15.1105C41.8589 15.2995 41.7645 15.4885 41.6227 15.6302C41.5282 15.6774 39.2606 17.2364 39.1661 21.7717C38.9772 31.976 34.7253 36.3223 31.1822 38.1648C25.7493 40.9521 19.2771 39.5348 15.545 36.9837C15.2143 36.7475 14.8836 36.5113 14.5056 36.2751C11.3404 34.0074 6.61616 30.606 1.23054 34.6688L2.45884 36.2751C3.59265 35.3302 4.72647 34.9051 5.90753 34.9051Z" fill="black"/>
<path d="M57.2131 30.0391C56.9297 30.0391 56.7407 29.8501 56.7407 29.5666C56.7407 27.0156 56.7407 23.0944 55.1344 20.0237C54.9927 19.7875 55.0872 19.504 55.3234 19.4095C55.5596 19.2678 55.8431 19.3623 55.9376 19.5985C57.6383 22.8582 57.6383 26.8738 57.6383 29.5666C57.6855 29.8029 57.4966 30.0391 57.2131 30.0391ZM53.7644 17.2836C53.6227 17.2836 53.5282 17.2364 53.4337 17.1419C52.2054 15.8191 50.5992 15.1577 48.6622 15.1577H48.615C48.3788 15.1577 48.1426 14.9688 48.1426 14.6853C48.1426 14.4019 48.3315 14.2129 48.615 14.2129H48.7095C50.9299 14.2129 52.7723 14.9688 54.1896 16.5278C54.3786 16.7167 54.3786 17.0002 54.1896 17.1892C54.0006 17.2364 53.9061 17.2836 53.7644 17.2836Z" fill="black"/>
</svg>
