<svg width="58" height="60" viewBox="0 0 58 60" fill="none" xmlns="http://www.w3.org/2000/svg">
<path d="M55.792 44.3106C54.7056 43.1706 53.118 42.5795 51.0687 42.5532L41.4053 42.5174C41.333 42.4569 41.2577 42.4002 41.1815 42.3455L29.8299 13.8535C30.962 13.5342 31.9983 12.9563 32.8526 12.1584C34.2476 10.8583 35.0301 9.1142 35.0557 7.24761C35.0812 5.38245 34.347 3.61862 32.9877 2.28187C31.6071 0.923224 29.757 0.172984 27.7776 0.169552C25.8636 0.166233 24.0536 0.869259 22.6813 2.14995C20.6009 4.09376 19.9353 7.03844 20.9463 9.61536C20.9522 9.64674 20.9517 9.67763 20.9645 9.70854L30.7629 33.1553L12.3514 15.0355C12.3187 15.0031 12.2791 14.9835 12.24 14.9626C10.9017 13.8002 9.19364 13.1567 7.37043 13.1535C5.45599 13.1502 3.64643 13.8528 2.27419 15.133C-0.603878 17.8215 -0.664121 22.2527 2.14005 25.011C3.51961 26.3696 5.36979 27.1199 7.34869 27.1233C9.26314 27.1266 11.0727 26.4236 12.4444 25.1429C12.5736 25.0229 12.6987 24.8976 12.8175 24.7691L35.3884 46.9825C35.4467 47.0938 35.5115 47.2027 35.5822 47.3093C35.7924 47.6266 36.0512 47.9008 36.3399 48.138C36.3478 48.1437 36.3513 48.1518 36.3592 48.157L36.3899 48.177C36.5811 48.328 36.7821 48.4666 36.9986 48.5801L53.5497 59.5339C53.6334 59.5892 53.7286 59.6164 53.8248 59.6166C53.9547 59.6168 54.0837 59.5672 54.1791 59.4704C54.343 59.3029 54.3558 59.0454 54.2084 58.865L46.2215 49.0504L56.8191 49.0631C57.073 49.063 57.2845 48.8762 57.3038 48.6338C57.3104 48.5303 57.4852 46.0875 55.792 44.3106ZM23.546 9.36088C23.54 9.34709 23.5341 9.33282 23.5277 9.31855C23.5366 9.3352 23.5465 9.35185 23.5564 9.36803L23.546 9.36088ZM25.0007 9.68797C23.5152 8.22602 23.547 5.87806 25.0727 4.45412C25.7993 3.77535 26.7585 3.40255 27.7729 3.40431C28.8212 3.40612 29.8022 3.80368 30.5338 4.52394C31.2536 5.23278 31.6427 6.16724 31.6296 7.15566C31.6159 8.14455 31.2013 9.06812 30.4618 9.75732C29.7347 10.4361 28.7761 10.8089 27.7616 10.8071C26.7129 10.8053 25.7323 10.4078 25.0007 9.68797ZM10.0542 22.7413C9.32758 23.4201 8.36847 23.7929 7.35447 23.7911C6.30576 23.7893 5.32518 23.3917 4.59357 22.6715C3.10808 21.2095 3.13992 18.8611 4.66562 17.4372C5.39221 16.7589 6.35133 16.3861 7.36582 16.3878C8.41403 16.3896 9.3956 16.7877 10.1267 17.5074C10.8464 18.2158 11.2351 19.1503 11.2219 20.1392C11.2078 21.1281 10.7932 22.0521 10.0542 22.7413Z" fill="#81A4E3"/>
</svg>
